<?xml version="1.0" standalone="no"?>
<!DOCTYPE svg PUBLIC "-//W3C//DTD SVG 20010904//EN"
 "http://www.w3.org/TR/2001/REC-SVG-20010904/DTD/svg10.dtd">
<svg version="1.0" xmlns="http://www.w3.org/2000/svg"
 width="512.000000pt" height="512.000000pt" viewBox="0 0 512.000000 512.000000"
 preserveAspectRatio="xMidYMid meet">
<metadata>
Created by potrace 1.11, written by Peter Selinger 2001-2013
</metadata>
<g transform="translate(0.000000,512.000000) scale(0.100000,-0.100000)"
fill="#000000" stroke="none">
<path d="M1789 4864 l-257 -257 255 -254 c251 -251 254 -255 236 -275 -10 -11
-123 -125 -250 -253 -128 -128 -233 -237 -233 -241 0 -5 113 -122 252 -261
l251 -252 -254 -255 -254 -255 -257 256 -256 256 -257 -256 -256 -257 256
-257 257 -256 251 251 c139 139 257 252 262 252 6 0 122 -113 259 -251 l249
-250 -251 -252 c-139 -139 -252 -256 -252 -261 0 -5 107 -116 238 -246 130
-131 243 -244 250 -253 11 -13 -24 -52 -241 -270 l-255 -254 257 -257 256
-256 767 768 767 768 -256 256 -256 256 252 252 c138 138 256 250 262 248 6
-2 122 -115 259 -252 l249 -249 257 256 256 257 -257 257 -257 257 -255 -256
-255 -256 -256 255 -255 255 256 257 256 256 -767 768 -767 767 -256 -256z"/>
</g>
</svg>
